<svg width="100" height="90" viewBox="0 0 100 90" fill="none" xmlns="http://www.w3.org/2000/svg">
<path d="M9.99976 90C7.24976 90 4.89559 89.0208 2.93726 87.0625C0.978923 85.1042 -0.000244141 82.75 -0.000244141 80V10C-0.000244141 7.25 0.978923 4.89583 2.93726 2.9375C4.89559 0.979167 7.24976 0 9.99976 0H89.9998C92.7498 0 95.1039 0.979167 97.0623 2.9375C99.0206 4.89583 99.9998 7.25 99.9998 10V80C99.9998 82.75 99.0206 85.1042 97.0623 87.0625C95.1039 89.0208 92.7498 90 89.9998 90H9.99976ZM19.9998 70H79.9998V60H19.9998V70ZM19.9998 50H39.9998V20H19.9998V50ZM49.9998 50H79.9998V40H49.9998V50ZM49.9998 30H79.9998V20H49.9998V30Z" fill="#019A72"/>
</svg>
