<svg width="90" height="100" viewBox="0 0 90 100" fill="none" xmlns="http://www.w3.org/2000/svg">
<path d="M20 70.002H30V10.002H20V70.002ZM15 100.002C10.8333 100.002 7.29167 98.5436 4.375 95.627C1.45833 92.7103 0 89.1686 0 85.002V15.002C0 10.8353 1.45833 7.29362 4.375 4.37695C7.29167 1.46029 10.8333 0.00195312 15 0.00195312H70V80.002H15C13.5833 80.002 12.3958 80.4811 11.4375 81.4395C10.4792 82.3978 10 83.5853 10 85.002C10 86.4186 10.4792 87.6061 11.4375 88.5645C12.3958 89.5228 13.5833 90.002 15 90.002H80V10.002H90V100.002H15Z" fill="#8E44AD"/>
</svg>
