<svg width="80" height="100" viewBox="0 0 80 100" fill="none" xmlns="http://www.w3.org/2000/svg">
<path d="M19.9988 54.9976H59.9988V44.9976H19.9988V54.9976ZM19.9988 69.9976H59.9988V59.9976H19.9988V69.9976ZM19.9988 84.9976H44.9988V74.9976H19.9988V84.9976ZM9.99878 99.9976C7.24878 99.9976 4.89461 99.0184 2.93628 97.0601C0.977946 95.1017 -0.0012207 92.7476 -0.0012207 89.9976V9.99756C-0.0012207 7.24756 0.977946 4.89339 2.93628 2.93506C4.89461 0.976725 7.24878 -0.00244141 9.99878 -0.00244141H49.9988L79.9988 29.9976V89.9976C79.9988 92.7476 79.0196 95.1017 77.0613 97.0601C75.1029 99.0184 72.7488 99.9976 69.9988 99.9976H9.99878ZM44.9988 34.9976H69.9988L44.9988 9.99756V34.9976Z" fill="#EB3257"/>
</svg>
